<mxfile host="app.diagrams.net" modified="2022-04-10T10:52:43.760Z" agent="5.0 (Linux; Android 11; SM-T860) AppleWebKit/537.36 (KHTML, like Gecko) Chrome/99.0.4844.88 Safari/537.36" etag="m2vISGkLzSoTIazy54BZ" version="17.4.1" type="github" pages="2">
  <diagram id="O2PlDPVQ_yYuAJ14_lku" name="Scen1">
    <mxGraphModel dx="582" dy="366" grid="1" gridSize="10" guides="1" tooltips="1" connect="1" arrows="1" fold="1" page="1" pageScale="1" pageWidth="827" pageHeight="1169" math="0" shadow="0">
      <root>
        <mxCell id="0" />
        <mxCell id="1" parent="0" />
        <mxCell id="Kq8sPYh8Am4Pb1MEhLlP-5" value="Environment&lt;br&gt;&lt;br&gt;&lt;br&gt;&lt;br&gt;&lt;br&gt;&lt;br&gt;&lt;br&gt;&lt;br&gt;&lt;br&gt;&lt;br&gt;&lt;br&gt;&lt;br&gt;&lt;br&gt;&lt;br&gt;&lt;br&gt;&lt;br&gt;" style="ellipse;whiteSpace=wrap;html=1;aspect=fixed;shadow=0;fillColor=#FFB366;strokeColor=default;gradientColor=none;" vertex="1" parent="1">
          <mxGeometry x="200" y="80" width="260" height="260" as="geometry" />
        </mxCell>
        <mxCell id="Kq8sPYh8Am4Pb1MEhLlP-4" value="Integration Layer&lt;br&gt;&lt;br&gt;&lt;br&gt;&lt;br&gt;&lt;br&gt;&lt;br&gt;&lt;br&gt;&lt;div&gt;&lt;br&gt;&lt;/div&gt;&lt;div&gt;&lt;br&gt;&lt;/div&gt;&lt;div&gt;&lt;br&gt;&lt;/div&gt;&lt;div&gt;&lt;br&gt;&lt;/div&gt;" style="ellipse;whiteSpace=wrap;html=1;aspect=fixed;shadow=0;fillColor=#FFCC99;strokeColor=default;align=center;" vertex="1" parent="1">
          <mxGeometry x="230" y="110" width="200" height="200" as="geometry" />
        </mxCell>
        <mxCell id="Kq8sPYh8Am4Pb1MEhLlP-1" value="Business&lt;br&gt;Logic&lt;br&gt;&lt;br&gt;&lt;br&gt;&lt;br&gt;&lt;br&gt;" style="ellipse;whiteSpace=wrap;html=1;aspect=fixed;fillColor=#FFE6CC;strokeColor=#36393d;direction=south;" vertex="1" parent="1">
          <mxGeometry x="270" y="150" width="120" height="120" as="geometry" />
        </mxCell>
        <mxCell id="g-dhPrcTP0AiWe-FvWY7-2" value="" style="whiteSpace=wrap;html=1;aspect=fixed;shadow=0;fontFamily=Helvetica;fontSize=12;fontColor=default;strokeColor=default;fillColor=#CCE5FF;direction=south;" vertex="1" parent="1">
          <mxGeometry x="310" y="220" width="40" height="40" as="geometry" />
        </mxCell>
      </root>
    </mxGraphModel>
  </diagram>
  <diagram id="2IEK_9fhoZ_jJccboW54" name="Page-2">
    <mxGraphModel dx="640" dy="403" grid="1" gridSize="10" guides="1" tooltips="1" connect="1" arrows="1" fold="1" page="1" pageScale="1" pageWidth="827" pageHeight="1169" math="0" shadow="0">
      <root>
        <mxCell id="0" />
        <mxCell id="1" parent="0" />
      </root>
    </mxGraphModel>
  </diagram>
</mxfile>
